<svg width="98" height="36" viewBox="0 0 98 36" fill="none" xmlns="http://www.w3.org/2000/svg">
<circle cx="5.5" cy="8.5" r="5.5" fill="#98D89E"/>
<path d="M29.358 8.904C29.918 9.08133 30.3567 9.38 30.674 9.8C30.9913 10.2107 31.15 10.7193 31.15 11.326C31.15 12.1847 30.814 12.8473 30.142 13.314C29.4793 13.7713 28.5087 14 27.23 14H22.162V4.2H26.95C28.1447 4.2 29.0593 4.42867 29.694 4.886C30.338 5.34333 30.66 5.964 30.66 6.748C30.66 7.224 30.5433 7.64867 30.31 8.022C30.086 8.39533 29.7687 8.68933 29.358 8.904ZM24.416 5.908V8.218H26.67C27.23 8.218 27.6547 8.12 27.944 7.924C28.2333 7.728 28.378 7.43867 28.378 7.056C28.378 6.67333 28.2333 6.38867 27.944 6.202C27.6547 6.006 27.23 5.908 26.67 5.908H24.416ZM27.062 12.292C27.6593 12.292 28.1073 12.194 28.406 11.998C28.714 11.802 28.868 11.4987 28.868 11.088C28.868 10.276 28.266 9.87 27.062 9.87H24.416V12.292H27.062ZM35.7511 6.356C36.9177 6.356 37.8137 6.636 38.4391 7.196C39.0644 7.74667 39.3771 8.582 39.3771 9.702V14H37.3331V13.062C36.9224 13.762 36.1571 14.112 35.0371 14.112C34.4584 14.112 33.9544 14.014 33.5251 13.818C33.1051 13.622 32.7831 13.3513 32.5591 13.006C32.3351 12.6607 32.2231 12.2687 32.2231 11.83C32.2231 11.13 32.4844 10.5793 33.0071 10.178C33.5391 9.77667 34.3557 9.576 35.4571 9.576H37.1931C37.1931 9.1 37.0484 8.736 36.7591 8.484C36.4697 8.22267 36.0357 8.092 35.4571 8.092C35.0557 8.092 34.6591 8.15733 34.2671 8.288C33.8844 8.40933 33.5577 8.57733 33.2871 8.792L32.5031 7.266C32.9137 6.97667 33.4037 6.75267 33.9731 6.594C34.5517 6.43533 35.1444 6.356 35.7511 6.356ZM35.5831 12.642C35.9564 12.642 36.2877 12.558 36.5771 12.39C36.8664 12.2127 37.0717 11.956 37.1931 11.62V10.85H35.6951C34.7991 10.85 34.3511 11.144 34.3511 11.732C34.3511 12.012 34.4584 12.236 34.6731 12.404C34.8971 12.5627 35.2004 12.642 35.5831 12.642ZM43.8877 14.112C43.2624 14.112 42.651 14.0373 42.0537 13.888C41.4564 13.7293 40.9804 13.5333 40.6257 13.3L41.3537 11.732C41.6897 11.9467 42.0957 12.124 42.5717 12.264C43.0477 12.3947 43.5144 12.46 43.9717 12.46C44.8957 12.46 45.3577 12.2313 45.3577 11.774C45.3577 11.5593 45.2317 11.4053 44.9797 11.312C44.7277 11.2187 44.3404 11.1393 43.8177 11.074C43.2017 10.9807 42.693 10.8733 42.2917 10.752C41.8904 10.6307 41.5404 10.416 41.2417 10.108C40.9524 9.8 40.8077 9.36133 40.8077 8.792C40.8077 8.316 40.943 7.896 41.2137 7.532C41.4937 7.15867 41.895 6.86933 42.4177 6.664C42.9497 6.45867 43.575 6.356 44.2937 6.356C44.8257 6.356 45.353 6.41667 45.8757 6.538C46.4077 6.65 46.8464 6.80867 47.1917 7.014L46.4637 8.568C45.801 8.19467 45.0777 8.008 44.2937 8.008C43.827 8.008 43.477 8.07333 43.2437 8.204C43.0104 8.33467 42.8937 8.50267 42.8937 8.708C42.8937 8.94133 43.0197 9.10467 43.2717 9.198C43.5237 9.29133 43.925 9.38 44.4757 9.464C45.0917 9.56667 45.5957 9.67867 45.9877 9.8C46.3797 9.912 46.7204 10.122 47.0097 10.43C47.299 10.738 47.4437 11.1673 47.4437 11.718C47.4437 12.1847 47.3037 12.6 47.0237 12.964C46.7437 13.328 46.333 13.6127 45.7917 13.818C45.2597 14.014 44.625 14.112 43.8877 14.112ZM48.7912 6.468H50.9752V14H48.7912V6.468ZM49.8832 5.418C49.4819 5.418 49.1552 5.30133 48.9032 5.068C48.6512 4.83467 48.5252 4.54533 48.5252 4.2C48.5252 3.85467 48.6512 3.56533 48.9032 3.332C49.1552 3.09867 49.4819 2.982 49.8832 2.982C50.2845 2.982 50.6112 3.094 50.8632 3.318C51.1152 3.542 51.2412 3.822 51.2412 4.158C51.2412 4.522 51.1152 4.82533 50.8632 5.068C50.6112 5.30133 50.2845 5.418 49.8832 5.418ZM56.6421 14.112C55.8395 14.112 55.1161 13.9487 54.4721 13.622C53.8375 13.286 53.3381 12.824 52.9741 12.236C52.6195 11.648 52.4421 10.9807 52.4421 10.234C52.4421 9.48733 52.6195 8.82 52.9741 8.232C53.3381 7.644 53.8375 7.18667 54.4721 6.86C55.1161 6.524 55.8395 6.356 56.6421 6.356C57.4355 6.356 58.1261 6.524 58.7141 6.86C59.3115 7.18667 59.7455 7.658 60.0161 8.274L58.3221 9.184C57.9301 8.49333 57.3655 8.148 56.6281 8.148C56.0588 8.148 55.5875 8.33467 55.2141 8.708C54.8408 9.08133 54.6541 9.59 54.6541 10.234C54.6541 10.878 54.8408 11.3867 55.2141 11.76C55.5875 12.1333 56.0588 12.32 56.6281 12.32C57.3748 12.32 57.9395 11.9747 58.3221 11.284L60.0161 12.208C59.7455 12.8053 59.3115 13.272 58.7141 13.608C58.1261 13.944 57.4355 14.112 56.6421 14.112ZM67.4225 6.048H64.2865V4.2H72.8265V6.048H69.6905V14H67.4225V6.048ZM80.5051 10.262C80.5051 10.29 80.4911 10.486 80.4631 10.85H74.7651C74.8678 11.3167 75.1105 11.6853 75.4931 11.956C75.8758 12.2267 76.3518 12.362 76.9211 12.362C77.3131 12.362 77.6585 12.306 77.9571 12.194C78.2651 12.0727 78.5498 11.886 78.8111 11.634L79.9731 12.894C79.2638 13.706 78.2278 14.112 76.8651 14.112C76.0158 14.112 75.2645 13.9487 74.6111 13.622C73.9578 13.286 73.4538 12.824 73.0991 12.236C72.7445 11.648 72.5671 10.9807 72.5671 10.234C72.5671 9.49667 72.7398 8.834 73.0851 8.246C73.4398 7.64867 73.9205 7.18667 74.5271 6.86C75.1431 6.524 75.8291 6.356 76.5851 6.356C77.3225 6.356 77.9898 6.51467 78.5871 6.832C79.1845 7.14933 79.6511 7.60667 79.9871 8.204C80.3325 8.792 80.5051 9.478 80.5051 10.262ZM76.5991 8.008C76.1045 8.008 75.6891 8.148 75.3531 8.428C75.0171 8.708 74.8118 9.09067 74.7371 9.576H78.4471C78.3725 9.1 78.1671 8.722 77.8311 8.442C77.4951 8.15267 77.0845 8.008 76.5991 8.008ZM89.3372 10.262C89.3372 10.29 89.3232 10.486 89.2952 10.85H83.5972C83.6998 11.3167 83.9425 11.6853 84.3252 11.956C84.7078 12.2267 85.1838 12.362 85.7532 12.362C86.1452 12.362 86.4905 12.306 86.7892 12.194C87.0972 12.0727 87.3818 11.886 87.6432 11.634L88.8052 12.894C88.0958 13.706 87.0598 14.112 85.6972 14.112C84.8478 14.112 84.0965 13.9487 83.4432 13.622C82.7898 13.286 82.2858 12.824 81.9312 12.236C81.5765 11.648 81.3992 10.9807 81.3992 10.234C81.3992 9.49667 81.5718 8.834 81.9172 8.246C82.2718 7.64867 82.7525 7.18667 83.3592 6.86C83.9752 6.524 84.6612 6.356 85.4172 6.356C86.1545 6.356 86.8218 6.51467 87.4192 6.832C88.0165 7.14933 88.4832 7.60667 88.8192 8.204C89.1645 8.792 89.3372 9.478 89.3372 10.262ZM85.4312 8.008C84.9365 8.008 84.5212 8.148 84.1852 8.428C83.8492 8.708 83.6438 9.09067 83.5692 9.576H87.2792C87.2045 9.1 86.9992 8.722 86.6632 8.442C86.3272 8.15267 85.9165 8.008 85.4312 8.008ZM93.3252 14.112C92.6999 14.112 92.0885 14.0373 91.4912 13.888C90.8939 13.7293 90.4179 13.5333 90.0632 13.3L90.7912 11.732C91.1272 11.9467 91.5332 12.124 92.0092 12.264C92.4852 12.3947 92.9519 12.46 93.4092 12.46C94.3332 12.46 94.7952 12.2313 94.7952 11.774C94.7952 11.5593 94.6692 11.4053 94.4172 11.312C94.1652 11.2187 93.7779 11.1393 93.2552 11.074C92.6392 10.9807 92.1305 10.8733 91.7292 10.752C91.3279 10.6307 90.9779 10.416 90.6792 10.108C90.3899 9.8 90.2452 9.36133 90.2452 8.792C90.2452 8.316 90.3805 7.896 90.6512 7.532C90.9312 7.15867 91.3325 6.86933 91.8552 6.664C92.3872 6.45867 93.0125 6.356 93.7312 6.356C94.2632 6.356 94.7905 6.41667 95.3132 6.538C95.8452 6.65 96.2839 6.80867 96.6292 7.014L95.9012 8.568C95.2385 8.19467 94.5152 8.008 93.7312 8.008C93.2645 8.008 92.9145 8.07333 92.6812 8.204C92.4479 8.33467 92.3312 8.50267 92.3312 8.708C92.3312 8.94133 92.4572 9.10467 92.7092 9.198C92.9612 9.29133 93.3625 9.38 93.9132 9.464C94.5292 9.56667 95.0332 9.67867 95.4252 9.8C95.8172 9.912 96.1579 10.122 96.4472 10.43C96.7365 10.738 96.8812 11.1673 96.8812 11.718C96.8812 12.1847 96.7412 12.6 96.4612 12.964C96.1812 13.328 95.7705 13.6127 95.2292 13.818C94.6972 14.014 94.0625 14.112 93.3252 14.112Z" fill="black"/>
<path d="M23.172 28.648C23.62 28.552 24.032 28.504 24.408 28.504C24.856 28.504 25.252 28.57 25.596 28.702C25.94 28.834 26.226 29.016 26.454 29.248C26.686 29.48 26.86 29.754 26.976 30.07C27.096 30.386 27.156 30.73 27.156 31.102C27.156 31.558 27.076 31.97 26.916 32.338C26.76 32.706 26.542 33.022 26.262 33.286C25.986 33.546 25.66 33.746 25.284 33.886C24.908 34.026 24.502 34.096 24.066 34.096C23.814 34.096 23.572 34.07 23.34 34.018C23.108 33.97 22.89 33.904 22.686 33.82C22.486 33.736 22.3 33.64 22.128 33.532C21.956 33.424 21.804 33.31 21.672 33.19L22.002 32.734C22.074 32.63 22.168 32.578 22.284 32.578C22.364 32.578 22.454 32.61 22.554 32.674C22.654 32.734 22.776 32.802 22.92 32.878C23.064 32.954 23.232 33.024 23.424 33.088C23.62 33.148 23.852 33.178 24.12 33.178C24.42 33.178 24.69 33.13 24.93 33.034C25.17 32.938 25.376 32.802 25.548 32.626C25.72 32.446 25.852 32.232 25.944 31.984C26.036 31.736 26.082 31.458 26.082 31.15C26.082 30.882 26.042 30.64 25.962 30.424C25.886 30.208 25.768 30.024 25.608 29.872C25.452 29.72 25.256 29.602 25.02 29.518C24.784 29.434 24.508 29.392 24.192 29.392C23.976 29.392 23.75 29.41 23.514 29.446C23.282 29.482 23.044 29.54 22.8 29.62L22.128 29.422L22.818 25.402H26.892V25.87C26.892 26.022 26.844 26.148 26.748 26.248C26.656 26.344 26.496 26.392 26.268 26.392H23.568L23.172 28.648ZM30.1329 28.648C30.5809 28.552 30.9929 28.504 31.3689 28.504C31.8169 28.504 32.2129 28.57 32.5569 28.702C32.9009 28.834 33.1869 29.016 33.4149 29.248C33.6469 29.48 33.8209 29.754 33.9369 30.07C34.0569 30.386 34.1169 30.73 34.1169 31.102C34.1169 31.558 34.0369 31.97 33.8769 32.338C33.7209 32.706 33.5029 33.022 33.2229 33.286C32.9469 33.546 32.6209 33.746 32.2449 33.886C31.8689 34.026 31.4629 34.096 31.0269 34.096C30.7749 34.096 30.5329 34.07 30.3009 34.018C30.0689 33.97 29.8509 33.904 29.6469 33.82C29.4469 33.736 29.2609 33.64 29.0889 33.532C28.9169 33.424 28.7649 33.31 28.6329 33.19L28.9629 32.734C29.0349 32.63 29.1289 32.578 29.2449 32.578C29.3249 32.578 29.4149 32.61 29.5149 32.674C29.6149 32.734 29.7369 32.802 29.8809 32.878C30.0249 32.954 30.1929 33.024 30.3849 33.088C30.5809 33.148 30.8129 33.178 31.0809 33.178C31.3809 33.178 31.6509 33.13 31.8909 33.034C32.1309 32.938 32.3369 32.802 32.5089 32.626C32.6809 32.446 32.8129 32.232 32.9049 31.984C32.9969 31.736 33.0429 31.458 33.0429 31.15C33.0429 30.882 33.0029 30.64 32.9229 30.424C32.8469 30.208 32.7289 30.024 32.5689 29.872C32.4129 29.72 32.2169 29.602 31.9809 29.518C31.7449 29.434 31.4689 29.392 31.1529 29.392C30.9369 29.392 30.7109 29.41 30.4749 29.446C30.2429 29.482 30.0049 29.54 29.7609 29.62L29.0889 29.422L29.7789 25.402H33.8529V25.87C33.8529 26.022 33.8049 26.148 33.7089 26.248C33.6169 26.344 33.4569 26.392 33.2289 26.392H30.5289L30.1329 28.648ZM39.2539 27.478C39.2539 27.814 39.2019 28.116 39.0979 28.384C38.9939 28.648 38.8539 28.872 38.6779 29.056C38.5059 29.236 38.3039 29.374 38.0719 29.47C37.8439 29.566 37.6019 29.614 37.3459 29.614C37.0779 29.614 36.8279 29.566 36.5959 29.47C36.3639 29.374 36.1619 29.236 35.9899 29.056C35.8219 28.872 35.6899 28.648 35.5939 28.384C35.4979 28.116 35.4499 27.814 35.4499 27.478C35.4499 27.134 35.4979 26.828 35.5939 26.56C35.6899 26.292 35.8219 26.066 35.9899 25.882C36.1619 25.698 36.3639 25.558 36.5959 25.462C36.8279 25.366 37.0779 25.318 37.3459 25.318C37.6179 25.318 37.8699 25.366 38.1019 25.462C38.3339 25.558 38.5359 25.698 38.7079 25.882C38.8799 26.066 39.0139 26.292 39.1099 26.56C39.2059 26.828 39.2539 27.134 39.2539 27.478ZM38.4259 27.478C38.4259 27.214 38.3979 26.99 38.3419 26.806C38.2859 26.622 38.2079 26.472 38.1079 26.356C38.0119 26.236 37.8979 26.15 37.7659 26.098C37.6339 26.046 37.4939 26.02 37.3459 26.02C37.1979 26.02 37.0599 26.046 36.9319 26.098C36.8039 26.15 36.6919 26.236 36.5959 26.356C36.4999 26.472 36.4239 26.622 36.3679 26.806C36.3119 26.99 36.2839 27.214 36.2839 27.478C36.2839 27.738 36.3119 27.96 36.3679 28.144C36.4239 28.324 36.4999 28.472 36.5959 28.588C36.6919 28.7 36.8039 28.782 36.9319 28.834C37.0599 28.882 37.1979 28.906 37.3459 28.906C37.4939 28.906 37.6339 28.882 37.7659 28.834C37.8979 28.782 38.0119 28.7 38.1079 28.588C38.2079 28.472 38.2859 28.324 38.3419 28.144C38.3979 27.96 38.4259 27.738 38.4259 27.478ZM42.2959 25.582C42.3359 25.534 42.3819 25.492 42.4339 25.456C42.4899 25.42 42.5639 25.402 42.6559 25.402H43.4299L37.1419 33.826C37.1059 33.878 37.0599 33.92 37.0039 33.952C36.9479 33.984 36.8799 34 36.7999 34H36.0139L42.2959 25.582ZM44.0119 31.972C44.0119 32.308 43.9599 32.608 43.8559 32.872C43.7519 33.136 43.6119 33.36 43.4359 33.544C43.2639 33.724 43.0619 33.862 42.8299 33.958C42.6019 34.054 42.3599 34.102 42.1039 34.102C41.8319 34.102 41.5799 34.054 41.3479 33.958C41.1199 33.862 40.9199 33.724 40.7479 33.544C40.5799 33.36 40.4479 33.136 40.3519 32.872C40.2559 32.608 40.2079 32.308 40.2079 31.972C40.2079 31.628 40.2559 31.322 40.3519 31.054C40.4479 30.782 40.5799 30.554 40.7479 30.37C40.9199 30.186 41.1199 30.046 41.3479 29.95C41.5799 29.854 41.8319 29.806 42.1039 29.806C42.3719 29.806 42.6219 29.854 42.8539 29.95C43.0899 30.046 43.2919 30.186 43.4599 30.37C43.6319 30.554 43.7659 30.782 43.8619 31.054C43.9619 31.322 44.0119 31.628 44.0119 31.972ZM43.1839 31.972C43.1839 31.708 43.1559 31.484 43.0999 31.3C43.0439 31.112 42.9659 30.96 42.8659 30.844C42.7699 30.728 42.6559 30.644 42.5239 30.592C42.3919 30.54 42.2519 30.514 42.1039 30.514C41.9559 30.514 41.8159 30.54 41.6839 30.592C41.5559 30.644 41.4439 30.728 41.3479 30.844C41.2519 30.96 41.1759 31.112 41.1199 31.3C41.0679 31.484 41.0419 31.708 41.0419 31.972C41.0419 32.232 41.0679 32.452 41.1199 32.632C41.1759 32.812 41.2519 32.96 41.3479 33.076C41.4439 33.188 41.5559 33.27 41.6839 33.322C41.8159 33.37 41.9559 33.394 42.1039 33.394C42.2519 33.394 42.3919 33.37 42.5239 33.322C42.6559 33.27 42.7699 33.188 42.8659 33.076C42.9659 32.96 43.0439 32.812 43.0999 32.632C43.1559 32.452 43.1839 32.232 43.1839 31.972Z" fill="#858585"/>
</svg>
