<svg width="168" height="36" viewBox="0 0 168 36" fill="none" xmlns="http://www.w3.org/2000/svg">
<circle cx="5.5" cy="8.5" r="5.5" fill="#F6DC7D"/>
<path d="M26.852 14.168C25.8533 14.168 24.948 13.9533 24.136 13.524C23.3333 13.0853 22.6987 12.4833 22.232 11.718C21.7747 10.9433 21.546 10.0707 21.546 9.1C21.546 8.12933 21.7747 7.26133 22.232 6.496C22.6987 5.72133 23.3333 5.11933 24.136 4.69C24.948 4.25133 25.858 4.032 26.866 4.032C27.7153 4.032 28.4807 4.18133 29.162 4.48C29.8527 4.77867 30.4313 5.208 30.898 5.768L29.442 7.112C28.7793 6.34667 27.958 5.964 26.978 5.964C26.3713 5.964 25.83 6.09933 25.354 6.37C24.878 6.63133 24.5047 7 24.234 7.476C23.9727 7.952 23.842 8.49333 23.842 9.1C23.842 9.70667 23.9727 10.248 24.234 10.724C24.5047 11.2 24.878 11.5733 25.354 11.844C25.83 12.1053 26.3713 12.236 26.978 12.236C27.958 12.236 28.7793 11.8487 29.442 11.074L30.898 12.418C30.4313 12.9873 29.8527 13.4213 29.162 13.72C28.4713 14.0187 27.7013 14.168 26.852 14.168ZM39.6722 6.468V14H37.6002V13.104C37.3108 13.4307 36.9655 13.6827 36.5642 13.86C36.1628 14.028 35.7288 14.112 35.2622 14.112C34.2728 14.112 33.4888 13.8273 32.9102 13.258C32.3315 12.6887 32.0422 11.844 32.0422 10.724V6.468H34.2262V10.402C34.2262 11.6153 34.7348 12.222 35.7522 12.222C36.2748 12.222 36.6948 12.054 37.0122 11.718C37.3295 11.3727 37.4882 10.864 37.4882 10.192V6.468H39.6722ZM44.2295 14.112C43.6042 14.112 42.9928 14.0373 42.3955 13.888C41.7982 13.7293 41.3222 13.5333 40.9675 13.3L41.6955 11.732C42.0315 11.9467 42.4375 12.124 42.9135 12.264C43.3895 12.3947 43.8562 12.46 44.3135 12.46C45.2375 12.46 45.6995 12.2313 45.6995 11.774C45.6995 11.5593 45.5735 11.4053 45.3215 11.312C45.0695 11.2187 44.6822 11.1393 44.1595 11.074C43.5435 10.9807 43.0348 10.8733 42.6335 10.752C42.2322 10.6307 41.8822 10.416 41.5835 10.108C41.2942 9.8 41.1495 9.36133 41.1495 8.792C41.1495 8.316 41.2848 7.896 41.5555 7.532C41.8355 7.15867 42.2368 6.86933 42.7595 6.664C43.2915 6.45867 43.9168 6.356 44.6355 6.356C45.1675 6.356 45.6948 6.41667 46.2175 6.538C46.7495 6.65 47.1882 6.80867 47.5335 7.014L46.8055 8.568C46.1428 8.19467 45.4195 8.008 44.6355 8.008C44.1688 8.008 43.8188 8.07333 43.5855 8.204C43.3522 8.33467 43.2355 8.50267 43.2355 8.708C43.2355 8.94133 43.3615 9.10467 43.6135 9.198C43.8655 9.29133 44.2668 9.38 44.8175 9.464C45.4335 9.56667 45.9375 9.67867 46.3295 9.8C46.7215 9.912 47.0622 10.122 47.3515 10.43C47.6408 10.738 47.7855 11.1673 47.7855 11.718C47.7855 12.1847 47.6455 12.6 47.3655 12.964C47.0855 13.328 46.6748 13.6127 46.1335 13.818C45.6015 14.014 44.9668 14.112 44.2295 14.112ZM53.991 13.636C53.7763 13.7947 53.5103 13.916 53.193 14C52.885 14.0747 52.5583 14.112 52.213 14.112C51.317 14.112 50.6217 13.8833 50.127 13.426C49.6417 12.9687 49.399 12.2967 49.399 11.41V8.316H48.237V6.636H49.399V4.802H51.583V6.636H53.459V8.316H51.583V11.382C51.583 11.6993 51.6623 11.9467 51.821 12.124C51.989 12.292 52.2223 12.376 52.521 12.376C52.8663 12.376 53.1603 12.2827 53.403 12.096L53.991 13.636ZM58.5686 14.112C57.7752 14.112 57.0612 13.9487 56.4266 13.622C55.8012 13.286 55.3112 12.824 54.9566 12.236C54.6019 11.648 54.4246 10.9807 54.4246 10.234C54.4246 9.48733 54.6019 8.82 54.9566 8.232C55.3112 7.644 55.8012 7.18667 56.4266 6.86C57.0612 6.524 57.7752 6.356 58.5686 6.356C59.3619 6.356 60.0712 6.524 60.6966 6.86C61.3219 7.18667 61.8119 7.644 62.1666 8.232C62.5212 8.82 62.6986 9.48733 62.6986 10.234C62.6986 10.9807 62.5212 11.648 62.1666 12.236C61.8119 12.824 61.3219 13.286 60.6966 13.622C60.0712 13.9487 59.3619 14.112 58.5686 14.112ZM58.5686 12.32C59.1286 12.32 59.5859 12.1333 59.9406 11.76C60.3046 11.3773 60.4866 10.8687 60.4866 10.234C60.4866 9.59933 60.3046 9.09533 59.9406 8.722C59.5859 8.33933 59.1286 8.148 58.5686 8.148C58.0086 8.148 57.5466 8.33933 57.1826 8.722C56.8186 9.09533 56.6366 9.59933 56.6366 10.234C56.6366 10.8687 56.8186 11.3773 57.1826 11.76C57.5466 12.1333 58.0086 12.32 58.5686 12.32ZM73.8044 6.356C74.7471 6.356 75.4937 6.636 76.0444 7.196C76.6044 7.74667 76.8844 8.57733 76.8844 9.688V14H74.7004V10.024C74.7004 9.42667 74.5744 8.98333 74.3224 8.694C74.0797 8.39533 73.7297 8.246 73.2724 8.246C72.7591 8.246 72.3531 8.414 72.0544 8.75C71.7557 9.07667 71.6064 9.56667 71.6064 10.22V14H69.4224V10.024C69.4224 8.83867 68.9464 8.246 67.9944 8.246C67.4904 8.246 67.0891 8.414 66.7904 8.75C66.4917 9.07667 66.3424 9.56667 66.3424 10.22V14H64.1584V6.468H66.2444V7.336C66.5244 7.01867 66.8651 6.776 67.2664 6.608C67.6771 6.44 68.1251 6.356 68.6104 6.356C69.1424 6.356 69.6231 6.46333 70.0524 6.678C70.4817 6.88333 70.8271 7.18667 71.0884 7.588C71.3964 7.196 71.7837 6.89267 72.2504 6.678C72.7264 6.46333 73.2444 6.356 73.8044 6.356ZM86.1808 14.168C85.4062 14.168 84.6548 14.0653 83.9268 13.86C83.2082 13.6453 82.6295 13.37 82.1908 13.034L82.9608 11.326C83.3808 11.634 83.8802 11.8813 84.4588 12.068C85.0375 12.2547 85.6162 12.348 86.1948 12.348C86.8388 12.348 87.3148 12.2547 87.6228 12.068C87.9308 11.872 88.0848 11.6153 88.0848 11.298C88.0848 11.0647 87.9915 10.8733 87.8048 10.724C87.6275 10.5653 87.3942 10.4393 87.1048 10.346C86.8248 10.2527 86.4422 10.15 85.9568 10.038C85.2102 9.86067 84.5988 9.68333 84.1228 9.506C83.6468 9.32867 83.2362 9.044 82.8908 8.652C82.5548 8.26 82.3868 7.73733 82.3868 7.084C82.3868 6.51467 82.5408 6.00133 82.8488 5.544C83.1568 5.07733 83.6188 4.70867 84.2348 4.438C84.8602 4.16733 85.6208 4.032 86.5168 4.032C87.1422 4.032 87.7535 4.10667 88.3508 4.256C88.9482 4.40533 89.4708 4.62 89.9188 4.9L89.2188 6.622C88.3135 6.10867 87.4082 5.852 86.5028 5.852C85.8682 5.852 85.3968 5.95467 85.0888 6.16C84.7902 6.36533 84.6408 6.636 84.6408 6.972C84.6408 7.308 84.8135 7.56 85.1588 7.728C85.5135 7.88667 86.0502 8.04533 86.7688 8.204C87.5155 8.38133 88.1268 8.55867 88.6028 8.736C89.0788 8.91333 89.4848 9.19333 89.8208 9.576C90.1662 9.95867 90.3388 10.4767 90.3388 11.13C90.3388 11.69 90.1802 12.2033 89.8628 12.67C89.5548 13.1273 89.0882 13.4913 88.4628 13.762C87.8375 14.0327 87.0768 14.168 86.1808 14.168ZM96.3126 6.356C97.2459 6.356 97.9972 6.636 98.5666 7.196C99.1452 7.756 99.4346 8.58667 99.4346 9.688V14H97.2506V10.024C97.2506 9.42667 97.1199 8.98333 96.8586 8.694C96.5972 8.39533 96.2192 8.246 95.7246 8.246C95.1739 8.246 94.7352 8.41867 94.4086 8.764C94.0819 9.1 93.9186 9.604 93.9186 10.276V14H91.7346V3.612H93.9186V7.252C94.2079 6.96267 94.5579 6.74333 94.9686 6.594C95.3792 6.43533 95.8272 6.356 96.3126 6.356ZM105.08 14.112C104.287 14.112 103.573 13.9487 102.938 13.622C102.313 13.286 101.823 12.824 101.468 12.236C101.114 11.648 100.936 10.9807 100.936 10.234C100.936 9.48733 101.114 8.82 101.468 8.232C101.823 7.644 102.313 7.18667 102.938 6.86C103.573 6.524 104.287 6.356 105.08 6.356C105.874 6.356 106.583 6.524 107.208 6.86C107.834 7.18667 108.324 7.644 108.678 8.232C109.033 8.82 109.21 9.48733 109.21 10.234C109.21 10.9807 109.033 11.648 108.678 12.236C108.324 12.824 107.834 13.286 107.208 13.622C106.583 13.9487 105.874 14.112 105.08 14.112ZM105.08 12.32C105.64 12.32 106.098 12.1333 106.452 11.76C106.816 11.3773 106.998 10.8687 106.998 10.234C106.998 9.59933 106.816 9.09533 106.452 8.722C106.098 8.33933 105.64 8.148 105.08 8.148C104.52 8.148 104.058 8.33933 103.694 8.722C103.33 9.09533 103.148 9.59933 103.148 10.234C103.148 10.8687 103.33 11.3773 103.694 11.76C104.058 12.1333 104.52 12.32 105.08 12.32ZM112.756 7.462C113.017 7.098 113.367 6.82267 113.806 6.636C114.254 6.44933 114.767 6.356 115.346 6.356V8.372C115.103 8.35333 114.94 8.344 114.856 8.344C114.231 8.344 113.741 8.52133 113.386 8.876C113.031 9.22133 112.854 9.744 112.854 10.444V14H110.67V6.468H112.756V7.462ZM121.762 13.636C121.548 13.7947 121.282 13.916 120.964 14C120.656 14.0747 120.33 14.112 119.984 14.112C119.088 14.112 118.393 13.8833 117.898 13.426C117.413 12.9687 117.17 12.2967 117.17 11.41V8.316H116.008V6.636H117.17V4.802H119.354V6.636H121.23V8.316H119.354V11.382C119.354 11.6993 119.434 11.9467 119.592 12.124C119.76 12.292 119.994 12.376 120.292 12.376C120.638 12.376 120.932 12.2827 121.174 12.096L121.762 13.636ZM131.349 4.2C132.217 4.2 132.969 4.34467 133.603 4.634C134.247 4.92333 134.742 5.334 135.087 5.866C135.433 6.398 135.605 7.028 135.605 7.756C135.605 8.47467 135.433 9.10467 135.087 9.646C134.742 10.178 134.247 10.5887 133.603 10.878C132.969 11.158 132.217 11.298 131.349 11.298H129.375V14H127.107V4.2H131.349ZM131.223 9.45C131.905 9.45 132.423 9.30533 132.777 9.016C133.132 8.71733 133.309 8.29733 133.309 7.756C133.309 7.20533 133.132 6.78533 132.777 6.496C132.423 6.19733 131.905 6.048 131.223 6.048H129.375V9.45H131.223ZM140.04 6.356C141.207 6.356 142.103 6.636 142.728 7.196C143.353 7.74667 143.666 8.582 143.666 9.702V14H141.622V13.062C141.211 13.762 140.446 14.112 139.326 14.112C138.747 14.112 138.243 14.014 137.814 13.818C137.394 13.622 137.072 13.3513 136.848 13.006C136.624 12.6607 136.512 12.2687 136.512 11.83C136.512 11.13 136.773 10.5793 137.296 10.178C137.828 9.77667 138.645 9.576 139.746 9.576H141.482C141.482 9.1 141.337 8.736 141.048 8.484C140.759 8.22267 140.325 8.092 139.746 8.092C139.345 8.092 138.948 8.15733 138.556 8.288C138.173 8.40933 137.847 8.57733 137.576 8.792L136.792 7.266C137.203 6.97667 137.693 6.75267 138.262 6.594C138.841 6.43533 139.433 6.356 140.04 6.356ZM139.872 12.642C140.245 12.642 140.577 12.558 140.866 12.39C141.155 12.2127 141.361 11.956 141.482 11.62V10.85H139.984C139.088 10.85 138.64 11.144 138.64 11.732C138.64 12.012 138.747 12.236 138.962 12.404C139.186 12.5627 139.489 12.642 139.872 12.642ZM150.221 6.356C151.154 6.356 151.905 6.636 152.475 7.196C153.053 7.756 153.343 8.58667 153.343 9.688V14H151.159V10.024C151.159 9.42667 151.028 8.98333 150.767 8.694C150.505 8.39533 150.127 8.246 149.633 8.246C149.082 8.246 148.643 8.41867 148.317 8.764C147.99 9.1 147.827 9.604 147.827 10.276V14H145.643V6.468H147.729V7.35C148.018 7.03267 148.377 6.79 148.807 6.622C149.236 6.44467 149.707 6.356 150.221 6.356ZM160.18 13.636C159.966 13.7947 159.7 13.916 159.382 14C159.074 14.0747 158.748 14.112 158.402 14.112C157.506 14.112 156.811 13.8833 156.316 13.426C155.831 12.9687 155.588 12.2967 155.588 11.41V8.316H154.426V6.636H155.588V4.802H157.772V6.636H159.648V8.316H157.772V11.382C157.772 11.6993 157.852 11.9467 158.01 12.124C158.178 12.292 158.412 12.376 158.71 12.376C159.056 12.376 159.35 12.2827 159.592 12.096L160.18 13.636ZM163.94 14.112C163.315 14.112 162.704 14.0373 162.106 13.888C161.509 13.7293 161.033 13.5333 160.678 13.3L161.406 11.732C161.742 11.9467 162.148 12.124 162.624 12.264C163.1 12.3947 163.567 12.46 164.024 12.46C164.948 12.46 165.41 12.2313 165.41 11.774C165.41 11.5593 165.284 11.4053 165.032 11.312C164.78 11.2187 164.393 11.1393 163.87 11.074C163.254 10.9807 162.746 10.8733 162.344 10.752C161.943 10.6307 161.593 10.416 161.294 10.108C161.005 9.8 160.86 9.36133 160.86 8.792C160.86 8.316 160.996 7.896 161.266 7.532C161.546 7.15867 161.948 6.86933 162.47 6.664C163.002 6.45867 163.628 6.356 164.346 6.356C164.878 6.356 165.406 6.41667 165.928 6.538C166.46 6.65 166.899 6.80867 167.244 7.014L166.516 8.568C165.854 8.19467 165.13 8.008 164.346 8.008C163.88 8.008 163.53 8.07333 163.296 8.204C163.063 8.33467 162.946 8.50267 162.946 8.708C162.946 8.94133 163.072 9.10467 163.324 9.198C163.576 9.29133 163.978 9.38 164.528 9.464C165.144 9.56667 165.648 9.67867 166.04 9.8C166.432 9.912 166.773 10.122 167.062 10.43C167.352 10.738 167.496 11.1673 167.496 11.718C167.496 12.1847 167.356 12.6 167.076 12.964C166.796 13.328 166.386 13.6127 165.844 13.818C165.312 14.014 164.678 14.112 163.94 14.112Z" fill="black"/>
<path d="M21.78 27.73C21.836 27.338 21.944 26.992 22.104 26.692C22.264 26.388 22.466 26.134 22.71 25.93C22.958 25.726 23.24 25.572 23.556 25.468C23.876 25.36 24.22 25.306 24.588 25.306C24.952 25.306 25.288 25.358 25.596 25.462C25.904 25.566 26.168 25.714 26.388 25.906C26.612 26.098 26.786 26.33 26.91 26.602C27.034 26.874 27.096 27.176 27.096 27.508C27.096 27.78 27.06 28.024 26.988 28.24C26.92 28.452 26.82 28.638 26.688 28.798C26.56 28.958 26.404 29.094 26.22 29.206C26.036 29.318 25.83 29.41 25.602 29.482C26.162 29.626 26.582 29.874 26.862 30.226C27.146 30.574 27.288 31.01 27.288 31.534C27.288 31.93 27.212 32.286 27.06 32.602C26.912 32.918 26.708 33.188 26.448 33.412C26.188 33.632 25.884 33.802 25.536 33.922C25.192 34.038 24.822 34.096 24.426 34.096C23.97 34.096 23.58 34.04 23.256 33.928C22.932 33.812 22.658 33.654 22.434 33.454C22.21 33.254 22.026 33.018 21.882 32.746C21.738 32.47 21.616 32.172 21.516 31.852L21.978 31.66C22.098 31.608 22.214 31.594 22.326 31.618C22.442 31.642 22.526 31.708 22.578 31.816C22.63 31.928 22.694 32.062 22.77 32.218C22.85 32.374 22.958 32.524 23.094 32.668C23.23 32.812 23.402 32.934 23.61 33.034C23.822 33.134 24.09 33.184 24.414 33.184C24.714 33.184 24.976 33.136 25.2 33.04C25.428 32.94 25.616 32.812 25.764 32.656C25.916 32.5 26.03 32.326 26.106 32.134C26.182 31.942 26.22 31.752 26.22 31.564C26.22 31.332 26.19 31.12 26.13 30.928C26.07 30.736 25.958 30.57 25.794 30.43C25.63 30.29 25.404 30.18 25.116 30.1C24.832 30.02 24.466 29.98 24.018 29.98V29.206C24.386 29.202 24.698 29.162 24.954 29.086C25.214 29.01 25.424 28.906 25.584 28.774C25.748 28.642 25.866 28.484 25.938 28.3C26.014 28.116 26.052 27.912 26.052 27.688C26.052 27.44 26.012 27.224 25.932 27.04C25.856 26.856 25.75 26.704 25.614 26.584C25.478 26.464 25.316 26.374 25.128 26.314C24.944 26.254 24.744 26.224 24.528 26.224C24.312 26.224 24.11 26.256 23.922 26.32C23.738 26.384 23.574 26.474 23.43 26.59C23.29 26.702 23.172 26.836 23.076 26.992C22.98 27.148 22.912 27.32 22.872 27.508C22.82 27.648 22.754 27.742 22.674 27.79C22.598 27.834 22.486 27.846 22.338 27.826L21.78 27.73ZM34.0689 33.184V34H29.4609V33.184H31.3029V27.322C31.3029 27.146 31.3089 26.968 31.3209 26.788L29.7909 28.102C29.7389 28.146 29.6869 28.174 29.6349 28.186C29.5829 28.194 29.5349 28.194 29.4909 28.186C29.4469 28.178 29.4049 28.162 29.3649 28.138C29.3289 28.114 29.3009 28.088 29.2809 28.06L28.9449 27.598L31.5069 25.384H32.3769V33.184H34.0689ZM39.2539 27.478C39.2539 27.814 39.2019 28.116 39.0979 28.384C38.9939 28.648 38.8539 28.872 38.6779 29.056C38.5059 29.236 38.3039 29.374 38.0719 29.47C37.8439 29.566 37.6019 29.614 37.3459 29.614C37.0779 29.614 36.8279 29.566 36.5959 29.47C36.3639 29.374 36.1619 29.236 35.9899 29.056C35.8219 28.872 35.6899 28.648 35.5939 28.384C35.4979 28.116 35.4499 27.814 35.4499 27.478C35.4499 27.134 35.4979 26.828 35.5939 26.56C35.6899 26.292 35.8219 26.066 35.9899 25.882C36.1619 25.698 36.3639 25.558 36.5959 25.462C36.8279 25.366 37.0779 25.318 37.3459 25.318C37.6179 25.318 37.8699 25.366 38.1019 25.462C38.3339 25.558 38.5359 25.698 38.7079 25.882C38.8799 26.066 39.0139 26.292 39.1099 26.56C39.2059 26.828 39.2539 27.134 39.2539 27.478ZM38.4259 27.478C38.4259 27.214 38.3979 26.99 38.3419 26.806C38.2859 26.622 38.2079 26.472 38.1079 26.356C38.0119 26.236 37.8979 26.15 37.7659 26.098C37.6339 26.046 37.4939 26.02 37.3459 26.02C37.1979 26.02 37.0599 26.046 36.9319 26.098C36.8039 26.15 36.6919 26.236 36.5959 26.356C36.4999 26.472 36.4239 26.622 36.3679 26.806C36.3119 26.99 36.2839 27.214 36.2839 27.478C36.2839 27.738 36.3119 27.96 36.3679 28.144C36.4239 28.324 36.4999 28.472 36.5959 28.588C36.6919 28.7 36.8039 28.782 36.9319 28.834C37.0599 28.882 37.1979 28.906 37.3459 28.906C37.4939 28.906 37.6339 28.882 37.7659 28.834C37.8979 28.782 38.0119 28.7 38.1079 28.588C38.2079 28.472 38.2859 28.324 38.3419 28.144C38.3979 27.96 38.4259 27.738 38.4259 27.478ZM42.2959 25.582C42.3359 25.534 42.3819 25.492 42.4339 25.456C42.4899 25.42 42.5639 25.402 42.6559 25.402H43.4299L37.1419 33.826C37.1059 33.878 37.0599 33.92 37.0039 33.952C36.9479 33.984 36.8799 34 36.7999 34H36.0139L42.2959 25.582ZM44.0119 31.972C44.0119 32.308 43.9599 32.608 43.8559 32.872C43.7519 33.136 43.6119 33.36 43.4359 33.544C43.2639 33.724 43.0619 33.862 42.8299 33.958C42.6019 34.054 42.3599 34.102 42.1039 34.102C41.8319 34.102 41.5799 34.054 41.3479 33.958C41.1199 33.862 40.9199 33.724 40.7479 33.544C40.5799 33.36 40.4479 33.136 40.3519 32.872C40.2559 32.608 40.2079 32.308 40.2079 31.972C40.2079 31.628 40.2559 31.322 40.3519 31.054C40.4479 30.782 40.5799 30.554 40.7479 30.37C40.9199 30.186 41.1199 30.046 41.3479 29.95C41.5799 29.854 41.8319 29.806 42.1039 29.806C42.3719 29.806 42.6219 29.854 42.8539 29.95C43.0899 30.046 43.2919 30.186 43.4599 30.37C43.6319 30.554 43.7659 30.782 43.8619 31.054C43.9619 31.322 44.0119 31.628 44.0119 31.972ZM43.1839 31.972C43.1839 31.708 43.1559 31.484 43.0999 31.3C43.0439 31.112 42.9659 30.96 42.8659 30.844C42.7699 30.728 42.6559 30.644 42.5239 30.592C42.3919 30.54 42.2519 30.514 42.1039 30.514C41.9559 30.514 41.8159 30.54 41.6839 30.592C41.5559 30.644 41.4439 30.728 41.3479 30.844C41.2519 30.96 41.1759 31.112 41.1199 31.3C41.0679 31.484 41.0419 31.708 41.0419 31.972C41.0419 32.232 41.0679 32.452 41.1199 32.632C41.1759 32.812 41.2519 32.96 41.3479 33.076C41.4439 33.188 41.5559 33.27 41.6839 33.322C41.8159 33.37 41.9559 33.394 42.1039 33.394C42.2519 33.394 42.3919 33.37 42.5239 33.322C42.6559 33.27 42.7699 33.188 42.8659 33.076C42.9659 32.96 43.0439 32.812 43.0999 32.632C43.1559 32.452 43.1839 32.232 43.1839 31.972Z" fill="#858585"/>
</svg>
