<svg width="128" height="36" viewBox="0 0 128 36" fill="none" xmlns="http://www.w3.org/2000/svg">
<circle cx="5.5" cy="8.5" r="5.5" fill="#EE8484"/>
<path d="M25.382 14.168C24.6073 14.168 23.856 14.0653 23.128 13.86C22.4093 13.6453 21.8307 13.37 21.392 13.034L22.162 11.326C22.582 11.634 23.0813 11.8813 23.66 12.068C24.2387 12.2547 24.8173 12.348 25.396 12.348C26.04 12.348 26.516 12.2547 26.824 12.068C27.132 11.872 27.286 11.6153 27.286 11.298C27.286 11.0647 27.1927 10.8733 27.006 10.724C26.8287 10.5653 26.5953 10.4393 26.306 10.346C26.026 10.2527 25.6433 10.15 25.158 10.038C24.4113 9.86067 23.8 9.68333 23.324 9.506C22.848 9.32867 22.4373 9.044 22.092 8.652C21.756 8.26 21.588 7.73733 21.588 7.084C21.588 6.51467 21.742 6.00133 22.05 5.544C22.358 5.07733 22.82 4.70867 23.436 4.438C24.0613 4.16733 24.822 4.032 25.718 4.032C26.3433 4.032 26.9547 4.10667 27.552 4.256C28.1493 4.40533 28.672 4.62 29.12 4.9L28.42 6.622C27.5147 6.10867 26.6093 5.852 25.704 5.852C25.0693 5.852 24.598 5.95467 24.29 6.16C23.9913 6.36533 23.842 6.636 23.842 6.972C23.842 7.308 24.0147 7.56 24.36 7.728C24.7147 7.88667 25.2513 8.04533 25.97 8.204C26.7167 8.38133 27.328 8.55867 27.804 8.736C28.28 8.91333 28.686 9.19333 29.022 9.576C29.3673 9.95867 29.54 10.4767 29.54 11.13C29.54 11.69 29.3813 12.2033 29.064 12.67C28.756 13.1273 28.2893 13.4913 27.664 13.762C27.0387 14.0327 26.278 14.168 25.382 14.168ZM38.5237 6.468V14H36.4517V13.104C36.1624 13.4307 35.8171 13.6827 35.4157 13.86C35.0144 14.028 34.5804 14.112 34.1137 14.112C33.1244 14.112 32.3404 13.8273 31.7617 13.258C31.1831 12.6887 30.8937 11.844 30.8937 10.724V6.468H33.0777V10.402C33.0777 11.6153 33.5864 12.222 34.6037 12.222C35.1264 12.222 35.5464 12.054 35.8637 11.718C36.1811 11.3727 36.3397 10.864 36.3397 10.192V6.468H38.5237ZM44.9991 6.356C45.6991 6.356 46.3337 6.51933 46.9031 6.846C47.4817 7.16333 47.9344 7.616 48.2611 8.204C48.5877 8.78267 48.7511 9.45933 48.7511 10.234C48.7511 11.0087 48.5877 11.69 48.2611 12.278C47.9344 12.8567 47.4817 13.3093 46.9031 13.636C46.3337 13.9533 45.6991 14.112 44.9991 14.112C44.0377 14.112 43.2817 13.8087 42.7311 13.202V16.716H40.5471V6.468H42.6331V7.336C43.1744 6.68267 43.9631 6.356 44.9991 6.356ZM44.6211 12.32C45.1811 12.32 45.6384 12.1333 45.9931 11.76C46.3571 11.3773 46.5391 10.8687 46.5391 10.234C46.5391 9.59933 46.3571 9.09533 45.9931 8.722C45.6384 8.33933 45.1811 8.148 44.6211 8.148C44.0611 8.148 43.5991 8.33933 43.2351 8.722C42.8804 9.09533 42.7031 9.59933 42.7031 10.234C42.7031 10.8687 42.8804 11.3773 43.2351 11.76C43.5991 12.1333 44.0611 12.32 44.6211 12.32ZM57.5911 10.262C57.5911 10.29 57.5771 10.486 57.5491 10.85H51.8511C51.9537 11.3167 52.1964 11.6853 52.5791 11.956C52.9617 12.2267 53.4377 12.362 54.0071 12.362C54.3991 12.362 54.7444 12.306 55.0431 12.194C55.3511 12.0727 55.6357 11.886 55.8971 11.634L57.0591 12.894C56.3497 13.706 55.3137 14.112 53.9511 14.112C53.1017 14.112 52.3504 13.9487 51.6971 13.622C51.0437 13.286 50.5397 12.824 50.1851 12.236C49.8304 11.648 49.6531 10.9807 49.6531 10.234C49.6531 9.49667 49.8257 8.834 50.1711 8.246C50.5257 7.64867 51.0064 7.18667 51.6131 6.86C52.2291 6.524 52.9151 6.356 53.6711 6.356C54.4084 6.356 55.0757 6.51467 55.6731 6.832C56.2704 7.14933 56.7371 7.60667 57.0731 8.204C57.4184 8.792 57.5911 9.478 57.5911 10.262ZM53.6851 8.008C53.1904 8.008 52.7751 8.148 52.4391 8.428C52.1031 8.708 51.8977 9.09067 51.8231 9.576H55.5331C55.4584 9.1 55.2531 8.722 54.9171 8.442C54.5811 8.15267 54.1704 8.008 53.6851 8.008ZM61.1311 7.462C61.3924 7.098 61.7424 6.82267 62.1811 6.636C62.6291 6.44933 63.1424 6.356 63.7211 6.356V8.372C63.4784 8.35333 63.3151 8.344 63.2311 8.344C62.6058 8.344 62.1158 8.52133 61.7611 8.876C61.4064 9.22133 61.2291 9.744 61.2291 10.444V14H59.0451V6.468H61.1311V7.462ZM78.1813 4.2V14H75.9133V9.982H71.4613V14H69.1933V4.2H71.4613V8.064H75.9133V4.2H78.1813ZM83.9299 14.112C83.1366 14.112 82.4226 13.9487 81.7879 13.622C81.1626 13.286 80.6726 12.824 80.3179 12.236C79.9632 11.648 79.7859 10.9807 79.7859 10.234C79.7859 9.48733 79.9632 8.82 80.3179 8.232C80.6726 7.644 81.1626 7.18667 81.7879 6.86C82.4226 6.524 83.1366 6.356 83.9299 6.356C84.7232 6.356 85.4326 6.524 86.0579 6.86C86.6832 7.18667 87.1732 7.644 87.5279 8.232C87.8826 8.82 88.0599 9.48733 88.0599 10.234C88.0599 10.9807 87.8826 11.648 87.5279 12.236C87.1732 12.824 86.6832 13.286 86.0579 13.622C85.4326 13.9487 84.7232 14.112 83.9299 14.112ZM83.9299 12.32C84.4899 12.32 84.9472 12.1333 85.3019 11.76C85.6659 11.3773 85.8479 10.8687 85.8479 10.234C85.8479 9.59933 85.6659 9.09533 85.3019 8.722C84.9472 8.33933 84.4899 8.148 83.9299 8.148C83.3699 8.148 82.9079 8.33933 82.5439 8.722C82.1799 9.09533 81.9979 9.59933 81.9979 10.234C81.9979 10.8687 82.1799 11.3773 82.5439 11.76C82.9079 12.1333 83.3699 12.32 83.9299 12.32ZM93.1037 14.112C92.3104 14.112 91.5964 13.9487 90.9617 13.622C90.3364 13.286 89.8464 12.824 89.4917 12.236C89.1371 11.648 88.9597 10.9807 88.9597 10.234C88.9597 9.48733 89.1371 8.82 89.4917 8.232C89.8464 7.644 90.3364 7.18667 90.9617 6.86C91.5964 6.524 92.3104 6.356 93.1037 6.356C93.8971 6.356 94.6064 6.524 95.2317 6.86C95.8571 7.18667 96.3471 7.644 96.7017 8.232C97.0564 8.82 97.2337 9.48733 97.2337 10.234C97.2337 10.9807 97.0564 11.648 96.7017 12.236C96.3471 12.824 95.8571 13.286 95.2317 13.622C94.6064 13.9487 93.8971 14.112 93.1037 14.112ZM93.1037 12.32C93.6637 12.32 94.1211 12.1333 94.4757 11.76C94.8397 11.3773 95.0217 10.8687 95.0217 10.234C95.0217 9.59933 94.8397 9.09533 94.4757 8.722C94.1211 8.33933 93.6637 8.148 93.1037 8.148C92.5437 8.148 92.0817 8.33933 91.7177 8.722C91.3537 9.09533 91.1717 9.59933 91.1717 10.234C91.1717 10.8687 91.3537 11.3773 91.7177 11.76C92.0817 12.1333 92.5437 12.32 93.1037 12.32ZM106.366 3.612V14H104.28V13.132C103.738 13.7853 102.954 14.112 101.928 14.112C101.218 14.112 100.574 13.9533 99.9955 13.636C99.4262 13.3187 98.9782 12.866 98.6515 12.278C98.3249 11.69 98.1615 11.0087 98.1615 10.234C98.1615 9.45933 98.3249 8.778 98.6515 8.19C98.9782 7.602 99.4262 7.14933 99.9955 6.832C100.574 6.51467 101.218 6.356 101.928 6.356C102.889 6.356 103.64 6.65933 104.182 7.266V3.612H106.366ZM102.306 12.32C102.856 12.32 103.314 12.1333 103.678 11.76C104.042 11.3773 104.224 10.8687 104.224 10.234C104.224 9.59933 104.042 9.09533 103.678 8.722C103.314 8.33933 102.856 8.148 102.306 8.148C101.746 8.148 101.284 8.33933 100.92 8.722C100.556 9.09533 100.374 9.59933 100.374 10.234C100.374 10.8687 100.556 11.3773 100.92 11.76C101.284 12.1333 101.746 12.32 102.306 12.32ZM108.387 6.468H110.571V14H108.387V6.468ZM109.479 5.418C109.078 5.418 108.751 5.30133 108.499 5.068C108.247 4.83467 108.121 4.54533 108.121 4.2C108.121 3.85467 108.247 3.56533 108.499 3.332C108.751 3.09867 109.078 2.982 109.479 2.982C109.88 2.982 110.207 3.094 110.459 3.318C110.711 3.542 110.837 3.822 110.837 4.158C110.837 4.522 110.711 4.82533 110.459 5.068C110.207 5.30133 109.88 5.418 109.479 5.418ZM119.976 10.262C119.976 10.29 119.962 10.486 119.934 10.85H114.236C114.339 11.3167 114.581 11.6853 114.964 11.956C115.347 12.2267 115.823 12.362 116.392 12.362C116.784 12.362 117.129 12.306 117.428 12.194C117.736 12.0727 118.021 11.886 118.282 11.634L119.444 12.894C118.735 13.706 117.699 14.112 116.336 14.112C115.487 14.112 114.735 13.9487 114.082 13.622C113.429 13.286 112.925 12.824 112.57 12.236C112.215 11.648 112.038 10.9807 112.038 10.234C112.038 9.49667 112.211 8.834 112.556 8.246C112.911 7.64867 113.391 7.18667 113.998 6.86C114.614 6.524 115.3 6.356 116.056 6.356C116.793 6.356 117.461 6.51467 118.058 6.832C118.655 7.14933 119.122 7.60667 119.458 8.204C119.803 8.792 119.976 9.478 119.976 10.262ZM116.07 8.008C115.575 8.008 115.16 8.148 114.824 8.428C114.488 8.708 114.283 9.09067 114.208 9.576H117.918C117.843 9.1 117.638 8.722 117.302 8.442C116.966 8.15267 116.555 8.008 116.07 8.008ZM123.964 14.112C123.339 14.112 122.727 14.0373 122.13 13.888C121.533 13.7293 121.057 13.5333 120.702 13.3L121.43 11.732C121.766 11.9467 122.172 12.124 122.648 12.264C123.124 12.3947 123.591 12.46 124.048 12.46C124.972 12.46 125.434 12.2313 125.434 11.774C125.434 11.5593 125.308 11.4053 125.056 11.312C124.804 11.2187 124.417 11.1393 123.894 11.074C123.278 10.9807 122.769 10.8733 122.368 10.752C121.967 10.6307 121.617 10.416 121.318 10.108C121.029 9.8 120.884 9.36133 120.884 8.792C120.884 8.316 121.019 7.896 121.29 7.532C121.57 7.15867 121.971 6.86933 122.494 6.664C123.026 6.45867 123.651 6.356 124.37 6.356C124.902 6.356 125.429 6.41667 125.952 6.538C126.484 6.65 126.923 6.80867 127.268 7.014L126.54 8.568C125.877 8.19467 125.154 8.008 124.37 8.008C123.903 8.008 123.553 8.07333 123.32 8.204C123.087 8.33467 122.97 8.50267 122.97 8.708C122.97 8.94133 123.096 9.10467 123.348 9.198C123.6 9.29133 124.001 9.38 124.552 9.464C125.168 9.56667 125.672 9.67867 126.064 9.8C126.456 9.912 126.797 10.122 127.086 10.43C127.375 10.738 127.52 11.1673 127.52 11.718C127.52 12.1847 127.38 12.6 127.1 12.964C126.82 13.328 126.409 13.6127 125.868 13.818C125.336 14.014 124.701 14.112 123.964 14.112Z" fill="black"/>
<path d="M27.108 33.184V34H22.5V33.184H24.342V27.322C24.342 27.146 24.348 26.968 24.36 26.788L22.83 28.102C22.778 28.146 22.726 28.174 22.674 28.186C22.622 28.194 22.574 28.194 22.53 28.186C22.486 28.178 22.444 28.162 22.404 28.138C22.368 28.114 22.34 28.088 22.32 28.06L21.984 27.598L24.546 25.384H25.416V33.184H27.108ZM32.3409 30.898V27.352C32.3409 27.248 32.3449 27.134 32.3529 27.01C32.3609 26.886 32.3729 26.76 32.3889 26.632L29.2569 30.898H32.3409ZM34.5789 30.898V31.51C34.5789 31.574 34.5589 31.628 34.5189 31.672C34.4829 31.716 34.4249 31.738 34.3449 31.738H33.2769V34H32.3409V31.738H28.5249C28.4449 31.738 28.3749 31.716 28.3149 31.672C28.2589 31.624 28.2229 31.566 28.2069 31.498L28.0989 30.952L32.2809 25.402H33.2769V30.898H34.5789ZM39.2539 27.478C39.2539 27.814 39.2019 28.116 39.0979 28.384C38.9939 28.648 38.8539 28.872 38.6779 29.056C38.5059 29.236 38.3039 29.374 38.0719 29.47C37.8439 29.566 37.6019 29.614 37.3459 29.614C37.0779 29.614 36.8279 29.566 36.5959 29.47C36.3639 29.374 36.1619 29.236 35.9899 29.056C35.8219 28.872 35.6899 28.648 35.5939 28.384C35.4979 28.116 35.4499 27.814 35.4499 27.478C35.4499 27.134 35.4979 26.828 35.5939 26.56C35.6899 26.292 35.8219 26.066 35.9899 25.882C36.1619 25.698 36.3639 25.558 36.5959 25.462C36.8279 25.366 37.0779 25.318 37.3459 25.318C37.6179 25.318 37.8699 25.366 38.1019 25.462C38.3339 25.558 38.5359 25.698 38.7079 25.882C38.8799 26.066 39.0139 26.292 39.1099 26.56C39.2059 26.828 39.2539 27.134 39.2539 27.478ZM38.4259 27.478C38.4259 27.214 38.3979 26.99 38.3419 26.806C38.2859 26.622 38.2079 26.472 38.1079 26.356C38.0119 26.236 37.8979 26.15 37.7659 26.098C37.6339 26.046 37.4939 26.02 37.3459 26.02C37.1979 26.02 37.0599 26.046 36.9319 26.098C36.8039 26.15 36.6919 26.236 36.5959 26.356C36.4999 26.472 36.4239 26.622 36.3679 26.806C36.3119 26.99 36.2839 27.214 36.2839 27.478C36.2839 27.738 36.3119 27.96 36.3679 28.144C36.4239 28.324 36.4999 28.472 36.5959 28.588C36.6919 28.7 36.8039 28.782 36.9319 28.834C37.0599 28.882 37.1979 28.906 37.3459 28.906C37.4939 28.906 37.6339 28.882 37.7659 28.834C37.8979 28.782 38.0119 28.7 38.1079 28.588C38.2079 28.472 38.2859 28.324 38.3419 28.144C38.3979 27.96 38.4259 27.738 38.4259 27.478ZM42.2959 25.582C42.3359 25.534 42.3819 25.492 42.4339 25.456C42.4899 25.42 42.5639 25.402 42.6559 25.402H43.4299L37.1419 33.826C37.1059 33.878 37.0599 33.92 37.0039 33.952C36.9479 33.984 36.8799 34 36.7999 34H36.0139L42.2959 25.582ZM44.0119 31.972C44.0119 32.308 43.9599 32.608 43.8559 32.872C43.7519 33.136 43.6119 33.36 43.4359 33.544C43.2639 33.724 43.0619 33.862 42.8299 33.958C42.6019 34.054 42.3599 34.102 42.1039 34.102C41.8319 34.102 41.5799 34.054 41.3479 33.958C41.1199 33.862 40.9199 33.724 40.7479 33.544C40.5799 33.36 40.4479 33.136 40.3519 32.872C40.2559 32.608 40.2079 32.308 40.2079 31.972C40.2079 31.628 40.2559 31.322 40.3519 31.054C40.4479 30.782 40.5799 30.554 40.7479 30.37C40.9199 30.186 41.1199 30.046 41.3479 29.95C41.5799 29.854 41.8319 29.806 42.1039 29.806C42.3719 29.806 42.6219 29.854 42.8539 29.95C43.0899 30.046 43.2919 30.186 43.4599 30.37C43.6319 30.554 43.7659 30.782 43.8619 31.054C43.9619 31.322 44.0119 31.628 44.0119 31.972ZM43.1839 31.972C43.1839 31.708 43.1559 31.484 43.0999 31.3C43.0439 31.112 42.9659 30.96 42.8659 30.844C42.7699 30.728 42.6559 30.644 42.5239 30.592C42.3919 30.54 42.2519 30.514 42.1039 30.514C41.9559 30.514 41.8159 30.54 41.6839 30.592C41.5559 30.644 41.4439 30.728 41.3479 30.844C41.2519 30.96 41.1759 31.112 41.1199 31.3C41.0679 31.484 41.0419 31.708 41.0419 31.972C41.0419 32.232 41.0679 32.452 41.1199 32.632C41.1759 32.812 41.2519 32.96 41.3479 33.076C41.4439 33.188 41.5559 33.27 41.6839 33.322C41.8159 33.37 41.9559 33.394 42.1039 33.394C42.2519 33.394 42.3919 33.37 42.5239 33.322C42.6559 33.27 42.7699 33.188 42.8659 33.076C42.9659 32.96 43.0439 32.812 43.0999 32.632C43.1559 32.452 43.1839 32.232 43.1839 31.972Z" fill="#858585"/>
</svg>
