<svg width="142" height="143" viewBox="0 0 142 143" fill="none" xmlns="http://www.w3.org/2000/svg">
<path d="M65.3313 142.724C55.0553 141.873 44.8844 138.793 35.9193 133.699C26.9541 128.605 19.2063 121.619 13.2147 113.227C7.22302 104.835 3.1314 95.239 1.22439 85.1056C-0.682626 74.9722 -0.216643 64.2245 2.31462 54.2288L17.7473 58.3441C15.7913 66.0681 15.6066 74.2913 17.0802 82.1216C18.5538 89.952 21.7155 97.3673 26.3454 103.852C30.9753 110.337 36.9623 115.735 43.8899 119.671C50.8175 123.607 58.6768 126.104 66.6174 126.762L65.3313 142.724Z" fill="#F6DC7D"/>
<path fill-rule="evenodd" clip-rule="evenodd" d="M6.61171 101.309C2.66295 92.5922 0.517326 83.167 0.303797 73.5998C0.0902688 64.0327 1.61904 54.498 5.17496 45.6137C8.73089 36.7293 13.9319 28.7587 20.6875 21.9809C27.443 15.203 34.4142 9.85414 47.2875 4.88355L52.2115 20.1333C43.7819 23.4245 37.6436 28.0532 32.4234 33.2906C27.2032 38.528 23.0958 44.7668 20.3481 51.632C17.6003 58.4972 16.2689 65.847 16.4339 73.2398C16.5989 80.6326 18.0865 87.9929 21.1378 94.7287L21.1346 94.7301C21.1722 94.8067 21.2088 94.884 21.2442 94.9623C23.0614 98.9736 21.2826 103.698 17.2714 105.516C13.2601 107.333 8.53524 105.554 6.71811 101.543C6.68267 101.464 6.6486 101.386 6.61589 101.307L6.61171 101.309Z" fill="#F6DC7D"/>
<path fill-rule="evenodd" clip-rule="evenodd" d="M17.8137 58.4333C16.8689 61.763 13.8138 64.209 10.1793 64.226C5.77573 64.2467 2.18916 60.6936 2.16852 56.29C2.16408 55.3419 2.32527 54.4317 2.62493 53.5869C6.53258 38.5955 15.111 25.4126 27.3085 15.8268C39.7273 6.0671 55.0472 0.914775 70.8419 0.840749L70.9166 16.7877C58.7116 16.8449 46.8742 20.9708 37.2779 28.5124C27.6815 36.054 20.8093 46.6021 17.8686 58.4477L17.8137 58.4333Z" fill="#98D89E"/>
<path fill-rule="evenodd" clip-rule="evenodd" d="M70.939 16.9445C70.8535 16.9472 70.7677 16.9485 70.6816 16.9485C66.2779 16.9485 62.708 13.3787 62.708 8.97501C62.708 4.57134 66.2779 1.00146 70.6816 1.00146C70.7677 1.00146 70.8535 1.00283 70.939 1.00554V1.00146C80.5085 1.00146 89.9793 2.93624 98.7821 6.68952C107.585 10.4428 115.538 15.9371 122.163 22.8422C128.789 29.7473 133.95 37.9206 137.336 46.871C140.722 55.8214 142.264 65.364 141.869 74.9254C141.473 84.4867 139.149 93.8695 135.035 102.51C130.921 111.15 125.103 118.869 117.93 125.203C110.757 131.538 102.377 136.357 93.2944 139.37C84.2117 142.384 74.3029 143.515 64.766 142.725L66.5664 126.778C73.9358 127.388 81.1952 126.385 88.2136 124.057C95.232 121.728 101.707 118.005 107.25 113.11C112.793 108.215 117.289 102.25 120.468 95.5737C123.646 88.8972 125.443 81.6469 125.748 74.2586C126.054 66.8703 124.862 59.4964 122.246 52.5802C119.629 45.664 115.641 39.3483 110.521 34.0125C105.402 28.6768 99.2563 24.4312 92.4541 21.5309C85.652 18.6307 78.3336 16.9485 70.939 16.9485V16.9445Z" fill="#98D89E"/>
<path fill-rule="evenodd" clip-rule="evenodd" d="M126.024 71.7587C126.022 71.6733 126.02 71.5875 126.02 71.5013C126.02 67.0977 129.59 63.5278 133.994 63.5278C138.397 63.5278 141.967 67.0977 141.967 71.5013C141.967 71.5875 141.966 71.6733 141.963 71.7587L141.967 71.7587C141.967 81.3283 140.032 90.799 136.279 99.6018C132.526 108.405 127.199 116.459 120.294 123.084C113.389 129.71 105.362 134.824 96.4117 138.21C87.4613 141.597 78.9041 143.592 65.1269 142.808L66.9342 126.885C75.9708 127.366 83.4721 125.682 90.3883 123.066C97.3045 120.449 103.62 116.461 108.956 111.341C114.292 106.222 118.537 100.076 121.438 93.2739C124.338 86.4717 126.02 79.1534 126.02 71.7587L126.024 71.7587Z" fill="#EE8484"/>
<path d="M65.732 142.8C61.1578 142.8 57.4498 139.197 57.4498 134.752C57.4498 130.306 61.1578 126.703 65.732 126.703C70.3061 126.703 74.0142 130.306 74.0142 134.752C74.0142 139.197 70.3061 142.8 65.732 142.8Z" fill="#EE8484"/>
</svg>
